<svg width="32" height="160" xmlns="http://www.w3.org/2000/svg" xmlns:xlink="http://www.w3.org/1999/xlink">
    <defs>
        <path id="e" d="M0 6h32v4h-32zm0 8h32v4h-32zm0 8h32v4h-32zm0 0"/>
        <path id="d" d="M28 25.9l-7.65-7.65c1.05-1.5 1.65-3.3 1.65-5.25 0-5-4.05-9-9-9-5 0-9 4-9 9 0 4.95 4 9 9 9 1.95 0 3.75-.6 5.25-1.65l7.65 7.65 2.1-2.1m-21-12.9c0-3.3 2.7-6 6-6s6 2.7 6 6-2.7 6-6 6-6-2.7-6-6"/>
        <path id="c" d="M25 15v12h-3v-6c-.5-3-3-5-6-5s-5.5 2-6 5v6h-3v-12h-5l9-5v-2l5-3 5 3v2l9 5zm0 0"/>
        <path id="b" d="M31 6.8c-1.2.6-2.4.6-3.6.6 1.4-.5 2.4-1.7 2.8-3.4-1.2 1-2.6 1.7-4 1.7-1-1-2.6-1.7-4.4-1.7-3.5 0-6.3 2.6-6.3 6 0 .5.2.9.5 1.4-5.4-.2-9.9-2.6-13-6.4-.5.7-.8 1.9-.8 3.1 0 2.1 1.2 3.9 2.7 5.2-1-.3-1.9-.4-2.7-.7-.04-.2 0-.2 0 0 0 2.9 2.2 5.3 5 5.8-.5.2-1.1.3-1.6.3s-.8-.1-1.2-.1c.7 2.4 3 4.3 5.72 4.3-2.12 1.7-4.82 2.5-7.62 2.5h-1.5c2.72 1.7 6 2.6 9.5 2.6 11.2 0 17.4-9.3 17.4-17.3v-.7c1.3-.9 2.3-2.1 3.1-3.1zm0 .1"/>
        <path id="a" d="M29.8 13.5h.1c1.4 1.4 1.4 3.6 0 5l-11.5 11.5c-1.4 1.3-3.6 1.3-4.9 0l-11.5-11.5c-1.3-1.4-1.3-3.6 0-5l11.5-11.5c1.3-1.3 3.5-1.4 4.9 0l5.2 5.2-7.7 7.8-3.7-3.7c-.5-.5-1.2-.8-1.9-.8-.8 0-1.5.3-2 .8l-2.3 2.4c-.5.5-.8 1.2-.8 1.9 0 .8.3 1.4.8 2l7.9 7.9c.4.4.8.6 1.3.8h.6c.8 0 1.5-.3 2-.8zm.9-4.9c.3.4.3 1 0 1.4l-14.2 14.3c-.2.2-.5.5-.7.3h-.1l-.7-.3-7.8-8c-.4-.4-.4-1 0-1.4l2.3-2.3c.2-.2.4-.3.7-.3.3 0 .5.1.7.3l4.9 4.9 11.2-11.2c.2-.3.4-.3.7-.3.2 0 .5 0 .7.3zm0 0"/>
    </defs>
    <use y="129" xlink:href="#a" fill="#fff" opacity=".2"/>
    <use y="128" xlink:href="#a" fill="#161310"/>
    <use y="97" xlink:href="#b" fill="#fff" opacity=".2"/>
    <use y="96" xlink:href="#b" fill="#161310"/>
    <use y="65" xlink:href="#c" fill="#fff" opacity=".8"/>
    <use y="64" xlink:href="#c" fill="#CCC9C6"/>
    <use y="33" xlink:href="#d" fill="#fff" opacity=".8"/>
    <use y="32" xlink:href="#d" fill="#CCC9C6"/>
    <use y="1" xlink:href="#e" fill="#fff" opacity=".8"/>
    <use xlink:href="#e" fill="#CCC9C6"/>
</svg>