<?xml version="1.0" encoding="UTF-8" standalone="no"?>
<svg width="32px" height="96px" viewBox="0 0 32 96" version="1.1" xmlns="http://www.w3.org/2000/svg" xmlns:xlink="http://www.w3.org/1999/xlink" xmlns:sketch="http://www.bohemiancoding.com/sketch/ns">
    <title>sprite</title>
    <description>Created with Sketch (http://www.bohemiancoding.com/sketch)</description>
    <defs></defs>
    <g id="Page 1" fill="#D8D8D8" fill-rule="evenodd">
        <path d="M28,57.9000006 L20.3499994,50.25 C21.4000006,48.75 22,46.9500003 22,45 C22,40.0500001 17.9500003,36 13,36 C8.05000007,36 4,40.0500001 4,45 C4,49.9500003 8.05000007,54 13,54 C14.9500003,54 16.75,53.4000006 18.25,52.3499994 L25.9000006,60 L28,57.9000006 L28,57.9000006 L28,57.9000006 M7,45 C7,41.6999999 9.69999993,39 13,39 C16.2999997,39 19,41.6999999 19,45 C19,48.2999997 16.2999997,51 13,51 C9.69999993,51 7,48.2999997 7,45 C7,45 7,48.2999997 7,45 L7,45" id="search-shadow" fill="#330000"></path>
        <path d="M28,58.9000006 L20.3499994,51.25 C21.4000006,49.75 22,47.9500003 22,46 C22,41.0500001 17.9500003,37 13,37 C8.05000007,37 4,41.0500001 4,46 C4,50.9500003 8.05000007,55 13,55 C14.9500003,55 16.75,54.4000006 18.25,53.3499994 L25.9000006,61 L28,58.9000006 L28,58.9000006 L28,58.9000006 M7,46 C7,42.6999999 9.69999993,40 13,40 C16.2999997,40 19,42.6999999 19,46 C19,49.2999997 16.2999997,52 13,52 C9.69999993,52 7,49.2999997 7,46 C7,46 7,49.2999997 7,46 L7,46" id="search" fill="#885522"></path>
        <path d="M0,5 L32,5 L32,9 L0,9 Z M0,13 L32,13 L32,17 L0,17 Z M0,21 L32,21 L32,25 L0,25 Z M0,21" id="nav-shadow" fill="#330000"></path>
        <path d="M0,6 L32,6 L32,10 L0,10 Z M0,14 L32,14 L32,18 L0,18 Z M0,22 L32,22 L32,26 L0,26 Z M0,22" id="nav" fill="#885522"></path>
        <path d="M31,70.8457206 C29.8408303,71.4285714 28.6297564,71.4285714 27.4186857,71.4285714 C28.8027674,70.9143066 29.8408303,69.7142857 30.1868524,68 C28.9757784,69.0285819 27.5916967,69.7142857 26.2076117,69.7142857 C25.1695488,68.6857038 23.612456,68 21.7612455,68 C18.3010379,68 15.4809685,70.5714286 15.4809685,74 C15.4809685,74.5142648 15.6539796,74.8571429 16,75.3714076 C10.6366776,75.2000209 6.13840872,72.7999791 3.02422157,69.0285819 C2.5051901,69.7142857 2.15916967,70.9143066 2.15916967,72.1142753 C2.15916967,74.171439 3.370242,76.0571638 4.92733557,77.2571324 C3.88927346,77.0856934 3.02422157,76.9143066 2.15916967,76.5714286 C2.15916967,76.3999895 2.15916967,76.3999895 2.15916967,76.5714286 C2.15916967,79.4857352 4.40830493,81.9172712 7.17647083,82.3999895 C6.65743936,82.5714286 6.13840872,82.7428676 5.61937725,82.7428676 C5.10034579,82.7428676 4.75432536,82.5714286 4.40830493,82.5714286 C5.10034579,84.9714181 7.34948104,86.8571429 10.1176478,86.8571429 C8.04152273,88.5714286 5.27335683,89.4285714 2.5051901,89.4285714 L1,89.4285714 C3.71626325,91.1428571 7.00346062,92 10.4636682,92 C21.7093428,92 27.9377155,82.7428676 27.9377155,74.6857038 L27.9377155,74 C29.1487895,73.1428571 30.1868524,71.9428362 31,70.8628802 L31,70.8628802 L31,70.8457206 Z M31,70.8457206" id="twitter-shadow" fill="#000000"></path>
        <path d="M31,71.8457206 C29.8408303,72.4285714 28.6297564,72.4285714 27.4186857,72.4285714 C28.8027674,71.9143066 29.8408303,70.7142857 30.1868524,69 C28.9757784,70.0285819 27.5916967,70.7142857 26.2076117,70.7142857 C25.1695488,69.6857038 23.612456,69 21.7612455,69 C18.3010379,69 15.4809685,71.5714286 15.4809685,75 C15.4809685,75.5142648 15.6539796,75.8571429 16,76.3714076 C10.6366776,76.2000209 6.13840872,73.7999791 3.02422157,70.0285819 C2.5051901,70.7142857 2.15916967,71.9143066 2.15916967,73.1142753 C2.15916967,75.171439 3.370242,77.0571638 4.92733557,78.2571324 C3.88927346,78.0856934 3.02422157,77.9143066 2.15916967,77.5714286 C2.15916967,77.3999895 2.15916967,77.3999895 2.15916967,77.5714286 C2.15916967,80.4857352 4.40830493,82.9172712 7.17647083,83.3999895 C6.65743936,83.5714286 6.13840872,83.7428676 5.61937725,83.7428676 C5.10034579,83.7428676 4.75432536,83.5714286 4.40830493,83.5714286 C5.10034579,85.9714181 7.34948104,87.8571429 10.1176478,87.8571429 C8.04152273,89.5714286 5.27335683,90.4285714 2.5051901,90.4285714 L1,90.4285714 C3.71626325,92.1428571 7.00346062,93 10.4636682,93 C21.7093428,93 27.9377155,83.7428676 27.9377155,75.6857038 L27.9377155,75 C29.1487895,74.1428571 30.1868524,72.9428362 31,71.8628802 L31,71.8628802 L31,71.8457206 Z M31,71.8457206" id="twitter" fill="#FFFFFF"></path>
    </g>
</svg>