<?xml version="1.0" encoding="UTF-8" standalone="no"?>
<svg width="32px" height="160px" viewBox="0 0 32 160" version="1.1" xmlns="http://www.w3.org/2000/svg" xmlns:xlink="http://www.w3.org/1999/xlink" xmlns:sketch="http://www.bohemiancoding.com/sketch/ns">
    <title>sprite</title>
    <description>Created with Sketch (http://www.bohemiancoding.com/sketch)</description>
    <defs></defs>
    <g id="Page 1" fill="#D8D8D8" fill-rule="evenodd">
        <path d="M28,59.9000006 L20.3499994,52.25 C21.4000006,50.75 22,48.9500003 22,47 C22,42.0500001 17.9500003,38 13,38 C8.05000007,38 4,42.0500001 4,47 C4,51.9500003 8.05000007,56 13,56 C14.9500003,56 16.75,55.4000006 18.25,54.3499994 L25.9000006,62 L28,59.9000006 L28,59.9000006 L28,59.9000006 M7,47 C7,43.6999999 9.69999993,41 13,41 C16.2999997,41 19,43.6999999 19,47 C19,50.2999997 16.2999997,53 13,53 C9.69999993,53 7,50.2999997 7,47 C7,47 7,50.2999997 7,47 L7,47" id="search-shadow" fill-opacity="0.504193474" fill="#FFFFFF"></path>
        <path d="M28,58.9000006 L20.3499994,51.25 C21.4000006,49.75 22,47.9500003 22,46 C22,41.0500001 17.9500003,37 13,37 C8.05000007,37 4,41.0500001 4,46 C4,50.9500003 8.05000007,55 13,55 C14.9500003,55 16.75,54.4000006 18.25,53.3499994 L25.9000006,61 L28,58.9000006 L28,58.9000006 L28,58.9000006 M7,46 C7,42.6999999 9.69999993,40 13,40 C16.2999997,40 19,42.6999999 19,46 C19,49.2999997 16.2999997,52 13,52 C9.69999993,52 7,49.2999997 7,46 C7,46 7,49.2999997 7,46 L7,46" id="search" fill="#CCC9C6"></path>
        <path d="M0,7 L32,7 L32,11 L0,11 Z M0,15 L32,15 L32,19 L0,19 Z M0,23 L32,23 L32,27 L0,27 Z M0,23" id="nav-shadow" fill-opacity="0.498018153" fill="#FFFFFF"></path>
        <path d="M0,6 L32,6 L32,10 L0,10 Z M0,14 L32,14 L32,18 L0,18 Z M0,22 L32,22 L32,26 L0,26 Z M0,22" id="nav" fill="#CCC9C6"></path>
        <path d="M31,104.845721 C29.8408303,105.428571 28.6297564,105.428571 27.4186857,105.428571 C28.8027674,104.914307 29.8408303,103.714286 30.1868524,102 C28.9757784,103.028582 27.5916967,103.714286 26.2076117,103.714286 C25.1695488,102.685704 23.612456,102 21.7612455,102 C18.3010379,102 15.4809685,104.571429 15.4809685,108 C15.4809685,108.514265 15.6539796,108.857143 16,109.371408 C10.6366776,109.200021 6.13840872,106.799979 3.02422157,103.028582 C2.5051901,103.714286 2.15916967,104.914307 2.15916967,106.114275 C2.15916967,108.171439 3.370242,110.057164 4.92733557,111.257132 C3.88927346,111.085693 3.02422157,110.914307 2.15916967,110.571429 C2.15916967,110.39999 2.15916967,110.39999 2.15916967,110.571429 C2.15916967,113.485735 4.40830493,115.917271 7.17647083,116.39999 C6.65743936,116.571429 6.13840872,116.742868 5.61937725,116.742868 C5.10034579,116.742868 4.75432536,116.571429 4.40830493,116.571429 C5.10034579,118.971418 7.34948104,120.857143 10.1176478,120.857143 C8.04152273,122.571429 5.27335683,123.428571 2.5051901,123.428571 L1,123.428571 C3.71626325,125.142857 7.00346062,126 10.4636682,126 C21.7093428,126 27.9377155,116.742868 27.9377155,108.685704 L27.9377155,108 C29.1487895,107.142857 30.1868524,105.942836 31,104.86288 L31,104.86288 L31,104.845721 Z M31,104.845721" id="twitter-shadow" fill-opacity="0.15" fill="#FFFFFF"></path>
        <path d="M31,103.845721 C29.8408303,104.428571 28.6297564,104.428571 27.4186857,104.428571 C28.8027674,103.914307 29.8408303,102.714286 30.1868524,101 C28.9757784,102.028582 27.5916967,102.714286 26.2076117,102.714286 C25.1695488,101.685704 23.612456,101 21.7612455,101 C18.3010379,101 15.4809685,103.571429 15.4809685,107 C15.4809685,107.514265 15.6539796,107.857143 16,108.371408 C10.6366776,108.200021 6.13840872,105.799979 3.02422157,102.028582 C2.5051901,102.714286 2.15916967,103.914307 2.15916967,105.114275 C2.15916967,107.171439 3.370242,109.057164 4.92733557,110.257132 C3.88927346,110.085693 3.02422157,109.914307 2.15916967,109.571429 C2.15916967,109.39999 2.15916967,109.39999 2.15916967,109.571429 C2.15916967,112.485735 4.40830493,114.917271 7.17647083,115.39999 C6.65743936,115.571429 6.13840872,115.742868 5.61937725,115.742868 C5.10034579,115.742868 4.75432536,115.571429 4.40830493,115.571429 C5.10034579,117.971418 7.34948104,119.857143 10.1176478,119.857143 C8.04152273,121.571429 5.27335683,122.428571 2.5051901,122.428571 L1,122.428571 C3.71626325,124.142857 7.00346062,125 10.4636682,125 C21.7093428,125 27.9377155,115.742868 27.9377155,107.685704 L27.9377155,107 C29.1487895,106.142857 30.1868524,104.942836 31,103.86288 L31,103.86288 L31,103.845721 Z M31,103.845721" id="twitter" fill="#161310"></path>
        <path d="M29.8328053,142.47078 L29.8876804,142.525814 C31.2560396,143.898134 31.2560396,146.143235 29.8876804,147.515201 L18.4448207,158.991533 C17.0764615,160.3635 14.8381918,160.3635 13.4698326,158.991533 L2.02626938,147.515201 C0.657910205,146.143235 0.657910205,143.897781 2.02626938,142.525814 L13.4694808,131.049483 C14.83784,129.677516 17.0761098,129.677516 18.444469,131.049483 L23.6129269,136.2329 L15.8526771,144.019138 L12.1996154,140.3488 C11.6916692,139.836562 10.9842732,139.540931 10.2610479,139.540931 C9.535712,139.542342 8.83113014,139.834445 8.3217769,140.34245 L5.97762637,142.691269 C5.45877552,143.21021 5.17208844,143.902014 5.17208844,144.637564 C5.17173668,145.37276 5.45807199,146.063859 5.9772746,146.583506 L13.9000391,154.546134 C14.2584859,154.90703 14.7122605,155.16068 15.2029703,155.277803 L15.3151828,155.352945 L15.849863,155.354004 C16.5822341,155.354004 17.2702831,155.069662 17.790541,154.55319 Z M30.7118618,137.639439 C31.096339,138.025382 31.0959873,138.649805 30.7111582,139.035748 L16.4939415,153.299758 C16.3064517,153.485674 16.0552927,153.590802 15.7907667,153.590097 L15.7897114,153.589039 L15.7823244,153.589744 C15.7446857,153.590097 15.7070471,153.58798 15.6697602,153.582688 C15.4502599,153.558347 15.2444784,153.459568 15.0858331,153.300111 L7.16025453,145.335012 C6.77437021,144.94907 6.77577726,144.324647 7.16130982,143.939056 L9.50264625,141.593413 C9.68661845,141.409614 9.94059154,141.305543 10.1991376,141.304838 C10.4601459,141.304132 10.7120084,141.410319 10.8952771,141.594824 L15.7921738,146.514713 L26.9800051,135.289915 C27.1671431,135.103999 27.414081,135.000282 27.6775517,135.00134 C27.9413741,135.000282 28.1862014,135.103647 28.374043,135.290974 Z M30.7118618,137.639439" id="foursqaure-shadow" fill-opacity="0.15" fill="#FFFFFF"></path>
        <path d="M29.8328053,141.47078 L29.8876804,141.525814 C31.2560396,142.898134 31.2560396,145.143235 29.8876804,146.515201 L18.4448207,157.991533 C17.0764615,159.3635 14.8381918,159.3635 13.4698326,157.991533 L2.02626938,146.515201 C0.657910205,145.143235 0.657910205,142.897781 2.02626938,141.525814 L13.4694808,130.049483 C14.83784,128.677516 17.0761098,128.677516 18.444469,130.049483 L23.6129269,135.2329 L15.8526771,143.019138 L12.1996154,139.3488 C11.6916692,138.836562 10.9842732,138.540931 10.2610479,138.540931 C9.535712,138.542342 8.83113014,138.834445 8.3217769,139.34245 L5.97762637,141.691269 C5.45877552,142.21021 5.17208844,142.902014 5.17208844,143.637564 C5.17173668,144.37276 5.45807199,145.063859 5.9772746,145.583506 L13.9000391,153.546134 C14.2584859,153.90703 14.7122605,154.16068 15.2029703,154.277803 L15.3151828,154.352945 L15.849863,154.354004 C16.5822341,154.354004 17.2702831,154.069662 17.790541,153.55319 Z M30.7118618,136.639439 C31.096339,137.025382 31.0959873,137.649805 30.7111582,138.035748 L16.4939415,152.299758 C16.3064517,152.485674 16.0552927,152.590802 15.7907667,152.590097 L15.7897114,152.589039 L15.7823244,152.589744 C15.7446857,152.590097 15.7070471,152.58798 15.6697602,152.582688 C15.4502599,152.558347 15.2444784,152.459568 15.0858331,152.300111 L7.16025453,144.335012 C6.77437021,143.94907 6.77577726,143.324647 7.16130982,142.939056 L9.50264625,140.593413 C9.68661845,140.409614 9.94059154,140.305543 10.1991376,140.304838 C10.4601459,140.304132 10.7120084,140.410319 10.8952771,140.594824 L15.7921738,145.514713 L26.9800051,134.289915 C27.1671431,134.103999 27.414081,134.000282 27.6775517,134.00134 C27.9413741,134.000282 28.1862014,134.103647 28.374043,134.290974 Z M30.7118618,136.639439" id="foursqaure" fill="#161310"></path>
        <path d="M25,81 L25,93 L22,93 L22,88 L22,87 L21.9170416,87 C21.4409716,84.1622936 18.9730013,82 16,82 C13.0269987,82 10.5590284,84.1622936 10.0829584,87 L10,87 L10,88 L10,93 L7,93 L7,81 L2,81 L11,75.8571429 L11,74.1543028 L16.1355672,71 L21,74.1543028 L21,75.8571429 L30,81 Z M25,81" id="home-shadow" fill-opacity="0.502441406" fill="#FFFFFF"></path>
        <path d="M25,80 L25,92 L22,92 L22,87 L22,86 L21.9170416,86 C21.4409716,83.1622936 18.9730013,81 16,81 C13.0269987,81 10.5590284,83.1622936 10.0829584,86 L10,86 L10,87 L10,92 L7,92 L7,80 L2,80 L11,74.8571429 L11,73.1543028 L16.1355672,70 L21,73.1543028 L21,74.8571429 L30,80 Z M25,80" id="home" fill="#CCC9C6"></path>
    </g>
</svg>