<?xml version="1.0" encoding="UTF-8" standalone="no"?>
<svg width="32px" height="128px" viewBox="0 0 32 128" version="1.1" xmlns="http://www.w3.org/2000/svg" xmlns:xlink="http://www.w3.org/1999/xlink" xmlns:sketch="http://www.bohemiancoding.com/sketch/ns">
    <title>sprite</title>
    <description>Created with Sketch (http://www.bohemiancoding.com/sketch)</description>
    <defs></defs>
    <g id="Page 1" fill="#D8D8D8" fill-rule="evenodd">
        <path d="M28,59.9000006 L20.3499994,52.25 C21.4000006,50.75 22,48.9500003 22,47 C22,42.0500001 17.9500003,38 13,38 C8.05000007,38 4,42.0500001 4,47 C4,51.9500003 8.05000007,56 13,56 C14.9500003,56 16.75,55.4000006 18.25,54.3499994 L25.9000006,62 L28,59.9000006 L28,59.9000006 L28,59.9000006 M7,47 C7,43.6999999 9.69999993,41 13,41 C16.2999997,41 19,43.6999999 19,47 C19,50.2999997 16.2999997,53 13,53 C9.69999993,53 7,50.2999997 7,47 C7,47 7,50.2999997 7,47 L7,47" id="search-shadow" fill-opacity="0.504193474" fill="#FFFFFF"></path>
        <path d="M28,58.9000006 L20.3499994,51.25 C21.4000006,49.75 22,47.9500003 22,46 C22,41.0500001 17.9500003,37 13,37 C8.05000007,37 4,41.0500001 4,46 C4,50.9500003 8.05000007,55 13,55 C14.9500003,55 16.75,54.4000006 18.25,53.3499994 L25.9000006,61 L28,58.9000006 L28,58.9000006 L28,58.9000006 M7,46 C7,42.6999999 9.69999993,40 13,40 C16.2999997,40 19,42.6999999 19,46 C19,49.2999997 16.2999997,52 13,52 C9.69999993,52 7,49.2999997 7,46 C7,46 7,49.2999997 7,46 L7,46" id="search" fill="#CCC9C6"></path>
        <path d="M0,7 L32,7 L32,11 L0,11 Z M0,15 L32,15 L32,19 L0,19 Z M0,23 L32,23 L32,27 L0,27 Z M0,23" id="nav-shadow" fill-opacity="0.498018153" fill="#FFFFFF"></path>
        <path d="M0,6 L32,6 L32,10 L0,10 Z M0,14 L32,14 L32,18 L0,18 Z M0,22 L32,22 L32,26 L0,26 Z M0,22" id="nav" fill="#CCC9C6"></path>
        <path d="M31,102.845721 C29.8408303,103.428571 28.6297564,103.428571 27.4186857,103.428571 C28.8027674,102.914307 29.8408303,101.714286 30.1868524,100 C28.9757784,101.028582 27.5916967,101.714286 26.2076117,101.714286 C25.1695488,100.685704 23.612456,100 21.7612455,100 C18.3010379,100 15.4809685,102.571429 15.4809685,106 C15.4809685,106.514265 15.6539796,106.857143 16,107.371408 C10.6366776,107.200021 6.13840872,104.799979 3.02422157,101.028582 C2.5051901,101.714286 2.15916967,102.914307 2.15916967,104.114275 C2.15916967,106.171439 3.370242,108.057164 4.92733557,109.257132 C3.88927346,109.085693 3.02422157,108.914307 2.15916967,108.571429 C2.15916967,108.39999 2.15916967,108.39999 2.15916967,108.571429 C2.15916967,111.485735 4.40830493,113.917271 7.17647083,114.39999 C6.65743936,114.571429 6.13840872,114.742868 5.61937725,114.742868 C5.10034579,114.742868 4.75432536,114.571429 4.40830493,114.571429 C5.10034579,116.971418 7.34948104,118.857143 10.1176478,118.857143 C8.04152273,120.571429 5.27335683,121.428571 2.5051901,121.428571 L1,121.428571 C3.71626325,123.142857 7.00346062,124 10.4636682,124 C21.7093428,124 27.9377155,114.742868 27.9377155,106.685704 L27.9377155,106 C29.1487895,105.142857 30.1868524,103.942836 31,102.86288 L31,102.86288 L31,102.845721 Z M31,102.845721" id="twitter-shadow" fill-opacity="0.495203355" fill="#000000"></path>
        <path d="M31,103.845721 C29.8408303,104.428571 28.6297564,104.428571 27.4186857,104.428571 C28.8027674,103.914307 29.8408303,102.714286 30.1868524,101 C28.9757784,102.028582 27.5916967,102.714286 26.2076117,102.714286 C25.1695488,101.685704 23.612456,101 21.7612455,101 C18.3010379,101 15.4809685,103.571429 15.4809685,107 C15.4809685,107.514265 15.6539796,107.857143 16,108.371408 C10.6366776,108.200021 6.13840872,105.799979 3.02422157,102.028582 C2.5051901,102.714286 2.15916967,103.914307 2.15916967,105.114275 C2.15916967,107.171439 3.370242,109.057164 4.92733557,110.257132 C3.88927346,110.085693 3.02422157,109.914307 2.15916967,109.571429 C2.15916967,109.39999 2.15916967,109.39999 2.15916967,109.571429 C2.15916967,112.485735 4.40830493,114.917271 7.17647083,115.39999 C6.65743936,115.571429 6.13840872,115.742868 5.61937725,115.742868 C5.10034579,115.742868 4.75432536,115.571429 4.40830493,115.571429 C5.10034579,117.971418 7.34948104,119.857143 10.1176478,119.857143 C8.04152273,121.571429 5.27335683,122.428571 2.5051901,122.428571 L1,122.428571 C3.71626325,124.142857 7.00346062,125 10.4636682,125 C21.7093428,125 27.9377155,115.742868 27.9377155,107.685704 L27.9377155,107 C29.1487895,106.142857 30.1868524,104.942836 31,103.86288 L31,103.86288 L31,103.845721 Z M31,103.845721" id="twitter" fill="#FFFFFF"></path>
        <path d="M25,81 L25,93 L22,93 L22,88 L22,87 L21.9170416,87 C21.4409716,84.1622936 18.9730013,82 16,82 C13.0269987,82 10.5590284,84.1622936 10.0829584,87 L10,87 L10,88 L10,93 L7,93 L7,81 L2,81 L11,75.8571429 L11,74.1543028 L16.1355672,71 L21,74.1543028 L21,75.8571429 L30,81 Z M25,81" id="home-shadow" fill-opacity="0.502441406" fill="#FFFFFF"></path>
        <path d="M25,80 L25,92 L22,92 L22,87 L22,86 L21.9170416,86 C21.4409716,83.1622936 18.9730013,81 16,81 C13.0269987,81 10.5590284,83.1622936 10.0829584,86 L10,86 L10,87 L10,92 L7,92 L7,80 L2,80 L11,74.8571429 L11,73.1543028 L16.1355672,70 L21,73.1543028 L21,74.8571429 L30,80 Z M25,80" id="home" fill="#CCC9C6"></path>
    </g>
</svg>