<?xml version="1.0" encoding="UTF-8" standalone="no"?>
<svg width="32px" height="32px" viewBox="0 0 32 32" version="1.1" xmlns="http://www.w3.org/2000/svg" xmlns:xlink="http://www.w3.org/1999/xlink" xmlns:sketch="http://www.bohemiancoding.com/sketch/ns">
    <title>foursquare</title>
    <description>Created with Sketch (http://www.bohemiancoding.com/sketch)</description>
    <defs></defs>
    <g id="Page 1" fill="#D8D8D8" fill-rule="evenodd">
        <g id="foursquare">
            <path d="M29.8,13.5 L29.9,13.5 C31.3,14.9 31.3,17.1 29.9,18.5 L18.4,30 C17,31.3 14.8,31.3 13.5,30 L2,18.5 C0.7,17.1 0.7,14.9 2,13.5 L13.5,2 C14.8,0.7 17,0.6 18.4,2 L23.6,7.2 L15.9,15 L12.2,11.3 C11.7,10.8 11,10.5 10.3,10.5 C9.5,10.5 8.8,10.8 8.3,11.3 L6,13.7 C5.5,14.2 5.2,14.9 5.2,15.6 C5.2,16.4 5.5,17 6,17.6 L13.9,25.5 C14.3,25.9 14.7,26.1 15.2,26.3 L15.3,26.3 L15.8,26.3 C16.6,26.3 17.3,26 17.8,25.5 Z M30.7,8.6 C31,9 31,9.6 30.7,10 L16.5,24.3 C16.3,24.5 16,24.8 15.8,24.6 L15.8,24.6 L15.8,24.6 C15.7,24.6 15.7,24.7 15.7,24.6 C15.5,24.5 15.2,24.4 15,24.3 L7.2,16.3 C6.8,15.9 6.8,15.3 7.2,14.9 L9.5,12.6 C9.7,12.4 9.9,12.3 10.2,12.3 C10.5,12.3 10.7,12.4 10.9,12.6 L15.8,17.5 L27,6.3 C27.2,6 27.4,6 27.7,6 C27.9,6 28.2,6 28.4,6.3 Z M30.7,8.6" id="foursqaure" fill="#161310"></path>
        </g>
    </g>
</svg>