<?xml version="1.0" encoding="UTF-8" standalone="no"?>
<svg width="32px" height="32px" viewBox="0 0 32 32" version="1.1" xmlns="http://www.w3.org/2000/svg" xmlns:xlink="http://www.w3.org/1999/xlink" xmlns:sketch="http://www.bohemiancoding.com/sketch/ns">
    <title>twitter</title>
    <description>Created with Sketch (http://www.bohemiancoding.com/sketch)</description>
    <defs></defs>
    <g id="Page 1" fill="#D8D8D8" fill-rule="evenodd">
        <g id="twitter">
            <path d="M31,6.8 C29.8,7.4 28.6,7.4 27.4,7.4 C28.8,6.9 29.8,5.7 30.2,4 C29,5 27.6,5.7 26.2,5.7 C25.2,4.7 23.6,4 21.8,4 C18.3,4 15.5,6.6 15.5,10 C15.5,10.5 15.7,10.9 16,11.4 C10.6,11.2 6.1,8.8 3,5 C2.5,5.7 2.2,6.9 2.2,8.1 C2.2,10.2 3.4,12 4.9,13.3 C3.9,13 3,12.9 2.2,12.6 C2.16,12.4 2.2,12.4 2.2,12.6 C2.2,15.5 4.4,17.9 7.2,18.4 C6.7,18.6 6.1,18.7 5.6,18.7 C5.1,18.7 4.8,18.6 4.4,18.6 C5.1,21 7.4,22.9 10.12,22.9 C8,24.6 5.3,25.4 2.5,25.4 L1,25.4 C3.72,27.1 7,28 10.5,28 C21.7,28 27.9,18.7 27.9,10.7 L27.9,10 C29.2,9.1 30.2,7.9 31,6.9 L31,6.9 L31,6.9 Z M31,6.9" fill="#161310"></path>
        </g>
    </g>
</svg>