<svg version="1.1" xmlns="http://www.w3.org/2000/svg" xmlns:xlink="http://www.w3.org/1999/xlink">
  <defs>
    <symbol id="close" viewBox="0 0 16 16">
      <path d="M15 2.5 9.5 8l5.5 5.5-1.5 1.5L8 9.5 2.5 15 1 13.5 6.5 8 1 2.5 2.5 1 8 6.5 13.5 1z" />
    </symbol>
    <symbol id="locate" viewBox="0 0 16 16">
      <path
        d="M8 0a8 8 0 1 1 0 16A8 8 0 0 1 8 0Zm1 2v2L8 5 7 4V2C4 3 3 4 2 7h2l1 1-1 1H2c1 3 2 4 5 5v-2l1-1 1 1v2c3-1 4-2 5-5h-2l-1-1 1-1h2c-1-3-2-4-5-5Z" />
    </symbol>
    <symbol id="navigation" viewBox="0 0 16 16">
      <path d="M0 1h16v2H0Zm0 4h16v2H0Zm0 4h16v2H0Zm0 4h16v2H0Z" />
    </symbol>
    <symbol id="search" viewBox="0 0 16 16">
      <path d="M6 0a6 6 0 0 1 5 9l4 5-1 1-5-4-3 1A6 6 0 1 1 6 0Zm0 2a4 4 0 1 0 0 8 4 4 0 0 0 0-8Z" />
    </symbol>
    <symbol id="foursquare" viewBox="0 0 800 800">
      <path
        d="M150 105v615c0 41 50 50 70 28 0 0 183-213 186-216 3-4 7-4 7-4h116c49 0 59-34 64-54 4-18 55-264 71-342 12-60-3-92-60-92H219c-53 0-69 40-69 65zm414 122c-2 9-11 17-21 17H393c-17-1-31 13-31 30v18c1 17 14 31 31 31h127c12 0 22 11 19 23-2 13-15 78-17 85-1 8-9 17-21 17H386c0 0-14 0-27 17-13 15-127 157-127 157-1 2-2 1-2 0V140c0-12 9-21 21-21h312c12 0 23 11 19 25l-18 83z">
      </path>
    </symbol>
    <symbol id="github" viewBox="0 0 800 800">
      <path
        d="M400 48c200 0 360 160 360 360 0 160-104 296-246 343-13 4-24-3-24-18v-99c0-48-25-66-25-66 79-9 165-39 165-178-0-61-38-97-38-97 0-0 20-40-2-95-0-0-30-10-100 37-58-17-122-17-180 0-69-47-100-37-100-37-22 55-3 95-2 95-0-0-38 36-38 97 0 139 86 170 165 178 0-0-20 14-24 48-20 10-73 25-105-30 0 0-18-35-54-38 0-0-36-0-3 23 0-0 24 11 41 52-0-0 22 71 121 49v61c0 15-12 22-25 18C144 708 40 568 40 408 40 209 200 48 400 48z">
      </path>
    </symbol>
    <symbol id="microblog" viewBox="0 0 800 800">
      <path fill-rule="evenodd"
        d="M713 591c-68 85-31 158-8 194 10 14-5 15-10 14-98-19-136-84-138-88-4-5-8-8-13-6a421 421 0 0 1-144 23C180 728 0 566 0 364S180 0 400 0s400 162 400 364c0 86-32 164-87 227zM400 462l107 75a12 12 0 0 0 18-13l-38-125 104-78a12 12 0 0 0-7-22l-130-2-43-123a12 12 0 0 0-22 0l-43 123-130 2a12 12 0 0 0-7 22l104 78-38 125a12 12 0 0 0 18 13l107-75z" />
    </symbol>
  </defs>
</svg>