<svg version="1.1" xmlns="http://www.w3.org/2000/svg" xmlns:xlink="http://www.w3.org/1999/xlink">
  <defs>
    <path id="manicule"
      d="M18.6.2c1-.4 3.2-.1 4.7 0 1.3.3 2.8-.1 4.1.3 1 .5 2 .2 3.2.5 1.2.2 2 1.8.8 2.6s-2.6 0-4 0c-1 0-1.9 0-1.6.9.6.9.6 2.6 0 3.5-.7.8-.9 1.2-1 2.5-.3 1.2-1.8 1.1-1.2 2.5.5 1.3-1.6 1.8-2.7 2-1.3.3-2.7.3-3.9.6-1.2.6-2.3 0-3.7 0-1.4-.1-2.8-1-4-1.7-1.5-.6-1.2 1.7-2.2 2-1.5.3-2.7-.9-3-2.3C2.8 13 1 14.9 0 13.1V3.6c.8-1.3 2.4-.4 3.6-.6.5-.8.6-2.4 2-2.7C7 0 7.8.9 8 2.2c1.4 0 4.2-2.2 6.2-2.2s3.4.6 4.4.2Zm-11 11c.4 1.6 2 1.9 3.2 2.4 1.1.7 2.4 1 3.7 1 1.1.7 1.9-.1 1.7-1.3.6-.8.6 1.8 1.2.4.2-1 2.2-1 1.8.2.9.6 2.2 0 3.2-.4 1-.9-.3-1.7-1.3-1.4-1.2-.3-3.3-1-4 .3-.8.7-.7-1.8-1.3-.4-.6 1.4-2.2 1.4-3.2.8l-3.4-1.3c-.6-.7-1.6-1.1-1.4-2.4-.4-.3-.5-.8-.8-1.1-.7 1 .3 2.3.7 3.2Zm-.6 3c0-.6-.6-.8-1-.7-2 0 .7 2 1 .7ZM7 4c-.9.2-1 1.8-2 .8-1.4-.3-2 1.4-1.7 2.5 0 1.4 1.5 1 1-.3-.1-.8 1.2-2.2 1.1-.7.3 1-1 2.2-.2 3-1 0-3.2 0-2 1.7.2.9 1 2 1.8 1.1-.5-.5-1.2-2 .2-1.9.7.9.6 2.8 2 2.1-.6-1.3-1.5-2.4-1.1-4-.1-1.5 1-2.9.8-4.3Zm10 1c-1.4-.2-.8 2-1.6 2.6-1 1-1.8 2-3.2 2.4a3 3 0 0 1-3.1-.2c-.5.1.7 1.2 1.3 1.3 1 .6 1.8.1 3 0 .7-.3.8-.2 1 .8.7-.4 1-.9 1.6-2.6.6-1.7 1.6-1.8 2-2.8.2-.8-.4-1.4-1-1.5Zm-.2 5.8c1 .2 1.2-2.3 3-.9 0 1.4 1 1.3 2 1.6 1.3.7 2.8-1.8 1-2.2-1.3.1-2.6-.3-3.6-1.2-1.2-.2-2.6 1.6-2.4 2.7Zm-2.5-9.5C13 .9 8.5 3 8 4.5c-.5 1-1 2.5.5 3.5 1 1.2 2.9 1.5 3.2-.5.3-2 1.8-1.5 3-3.3.3-.7-1.5-1-.4-1.7 1.3 0 2.4 1.2 3.5 2 1 1 2.4.4 3.5 1.2.4 1.8-2.5-1.2-2.1.9 1 .4 1.6 1.8 3.4 1.8 1.2.3 3-.7 2.7-2.2.1-1.7-1.3-3.3-3-3-1.2 1-2.8-.6-4.1-1a9 9 0 0 0-4-1Zm-8.5 0c-.8 0-1 1.6-1.4 2.4C5.8 4 7.2 2.2 7 1.8c-.2-.4-.4-.6-1.2-.6Zm18.2.2c-.7.3 0 1 1 1.4 1 .3 3.2-.2 2-1.3-.8-.5-2.3-.4-3-.1ZM29 3c1.1.4 1.8.3 2-.4.2-.6-.5-1-2.2-1-1-.2-1 1.4.2 1.4Zm-9.2-2c-1-.2-.8.6.1 1s2.8.6 3 0c0-.2-.1-.5-.3-.6-.3-.2-1.2-.4-2.8-.4Zm2.7 2.9c.4.8.1 2-.5 2.5.6 1 2.8.5 2.4-1.1-.3-.9-1.2-1-1.9-1.4Z" />
    <symbol id="close" viewBox="0 0 16 16">
      <path d="M15 2.5 9.5 8l5.5 5.5-1.5 1.5L8 9.5 2.5 15 1 13.5 6.5 8 1 2.5 2.5 1 8 6.5 13.5 1z" />
    </symbol>
    <symbol id="locate" viewBox="0 0 16 16">
      <path
        d="M8 0a8 8 0 1 1 0 16A8 8 0 0 1 8 0Zm1 2v2L8 5 7 4V2C4 3 3 4 2 7h2l1 1-1 1H2c1 3 2 4 5 5v-2l1-1 1 1v2c3-1 4-2 5-5h-2l-1-1 1-1h2c-1-3-2-4-5-5Z" />
    </symbol>
    <symbol id="menu" viewBox="0 0 16 16">
      <path d="M0 1h16v2H0Zm0 4h16v2H0Zm0 4h16v2H0Zm0 4h16v2H0Z" />
    </symbol>
    <symbol id="search" viewBox="0 0 16 16">
      <path d="M6 0a6 6 0 0 1 5 9l4 5-1 1-5-4-3 1A6 6 0 1 1 6 0Zm0 2a4 4 0 1 0 0 8 4 4 0 0 0 0-8Z" />
    </symbol>
    <symbol id="prev" viewBox="0 0 32 16">
      <use xlink:href="#manicule" transform="translate(32), scale(-1, 1)" />
    </symbol>
    <symbol id="next" viewBox="0 0 32 16">
      <use xlink:href="#manicule" />
    </symbol>
    <symbol id="foursquare" viewBox="0 0 800 800">
      <path
        d="M150 105v615c0 41 50 50 70 28 0 0 183-213 186-216 3-4 7-4 7-4h116c49 0 59-34 64-54 4-18 55-264 71-342 12-60-3-92-60-92H219c-53 0-69 40-69 65zm414 122c-2 9-11 17-21 17H393c-17-1-31 13-31 30v18c1 17 14 31 31 31h127c12 0 22 11 19 23-2 13-15 78-17 85-1 8-9 17-21 17H386c0 0-14 0-27 17-13 15-127 157-127 157-1 2-2 1-2 0V140c0-12 9-21 21-21h312c12 0 23 11 19 25l-18 83z" />
    </symbol>
    <symbol id="github" viewBox="0 0 800 800">
      <path
        d="M400 48c200 0 360 160 360 360 0 160-104 296-246 343-13 4-24-3-24-18v-99c0-48-25-66-25-66 79-9 165-39 165-178-0-61-38-97-38-97 0-0 20-40-2-95-0-0-30-10-100 37-58-17-122-17-180 0-69-47-100-37-100-37-22 55-3 95-2 95-0-0-38 36-38 97 0 139 86 170 165 178 0-0-20 14-24 48-20 10-73 25-105-30 0 0-18-35-54-38 0-0-36-0-3 23 0-0 24 11 41 52-0-0 22 71 121 49v61c0 15-12 22-25 18C144 708 40 568 40 408 40 209 200 48 400 48z" />
    </symbol>
  </defs>
</svg>
