<svg version="1.1" xmlns="http://www.w3.org/2000/svg" xmlns:xlink="http://www.w3.org/1999/xlink">
  <defs>
    <symbol id="locate" viewBox="0 0 24 24">
      <path d="M0 0h24v24H0z" fill="none"/>
      <path d="M20.94 11c-.46-4.17-3.77-7.48-7.94-7.94V1h-2v2.06C6.83 3.52 3.52 6.83 3.06 11H1v2h2.06c.46 4.17 3.77 7.48 7.94 7.94V23h2v-2.06c4.17-.46 7.48-3.77 7.94-7.94H23v-2h-2.06zM12 19c-3.87 0-7-3.13-7-7s3.13-7 7-7 7 3.13 7 7-3.13 7-7 7z"/>
    </symbol>
    <symbol id="search" viewBox="0 0 160 160">
      <path d="M160 146l-51-51c7-10 11-22 11-35 0-33-27-60-60-60S0 27 0 60s27 60 60 60c13 0 25-4 35-11l51 51 14-14zM20 60c0-22 18-40 40-40s40 18 40 40-18 40-40 40-40-18-40-40z"/>
    </symbol>
    <symbol id="foursquare" viewBox="0 0 800 800">
      <path d="M150 105v615c0 41 50 50 70 28 0 0 183-213 186-216 3-4 7-4 7-4h116c49 0 59-34 64-54 4-18 55-264 71-342 12-60-3-92-60-92H219c-53 0-69 40-69 65zm414 122c-2 9-11 17-21 17H393c-17-1-31 13-31 30v18c1 17 14 31 31 31h127c12 0 22 11 19 23-2 13-15 78-17 85-1 8-9 17-21 17H386c0 0-14 0-27 17-13 15-127 157-127 157-1 2-2 1-2 0V140c0-12 9-21 21-21h312c12 0 23 11 19 25l-18 83z"/>
    </symbol>
    <symbol id="github" viewBox="0 0 800 800">
      <path d="M400 48c200 0 360 160 360 360 0 160-104 296-246 343-13 4-24-3-24-18v-99c0-48-25-66-25-66 79-9 165-39 165-178-0-61-38-97-38-97 0-0 20-40-2-95-0-0-30-10-100 37-58-17-122-17-180 0-69-47-100-37-100-37-22 55-3 95-2 95-0-0-38 36-38 97 0 139 86 170 165 178 0-0-20 14-24 48-20 10-73 25-105-30 0 0-18-35-54-38 0-0-36-0-3 23 0-0 24 11 41 52-0-0 22 71 121 49v61c0 15-12 22-25 18C144 708 40 568 40 408 40 209 200 48 400 48z"/>
    </symbol>
    <symbol id="twitter" viewBox="0 0 800 800">
      <path d="M718 236C729 468 559 725 251 725 98 725 0 651 0 651S120 676 242 584C119 576 89 469 89 469s34 9 74-3c-138-34-132-163-132-163S65 324 106 324C-19 227 55 104 55 104s113 159 339 172c-33-180 174-263 280-150 55-9 106-40 106-40s-18 61-73 90.5c45-3 94-26 94-26S769 202 718 236z"/>
    </symbol>
  </defs>
</svg>
